<svg width="120" height="120" viewBox="0 0 120 120" fill="none" xmlns="http://www.w3.org/2000/svg">
<path d="M73.6088 77.9737C55.7288 93.105 29.2163 91.53 13.4963 74.145C7.41375 67.415 3.80625 59.5862 2.67375 50.6587C-0.761247 23.5537 21.2925 0.119997 48.57 2.04375C65.0812 3.21 79.3425 13.6312 85.56 28.8975C91.6463 43.8412 88.8487 60.885 78.3225 73.275C78.301 73.3011 78.2898 73.3341 78.2912 73.3675C78.2926 73.4008 78.3064 73.432 78.33 73.455L84.8025 79.9125C84.8658 79.9758 84.9424 80.0241 85.0267 80.054C85.1111 80.0838 85.201 80.0944 85.29 80.085C87.0675 79.9125 88.7438 80.5125 89.9888 81.7575C98.6038 90.3725 107.403 99.1675 116.385 108.142C117.979 109.732 118.526 111.874 117.78 114.049C116.618 117.424 112.376 118.822 109.444 116.797C109.189 116.622 108.441 115.915 107.201 114.675C99.2938 106.765 90.9687 98.4438 82.2262 89.7113C80.8662 88.3538 80.2837 86.7325 80.4787 84.8475C80.4912 84.7125 80.45 84.5975 80.355 84.5025L73.8712 77.985C73.7887 77.9025 73.7013 77.8987 73.6088 77.9737ZM83.2912 45.135C83.2912 40.174 82.3141 35.2616 80.4156 30.6782C78.5171 26.0948 75.7344 21.9302 72.2265 18.4223C68.7185 14.9143 64.554 12.1316 59.9706 10.2331C55.3872 8.33464 50.4748 7.3575 45.5138 7.3575C35.4945 7.3575 25.8857 11.3376 18.801 18.4223C11.7164 25.5069 7.73625 35.1158 7.73625 45.135C7.73625 55.1542 11.7164 64.7631 18.801 71.8477C25.8857 78.9324 35.4945 82.9125 45.5138 82.9125C50.4748 82.9125 55.3872 81.9353 59.9706 80.0368C64.554 78.1384 68.7185 75.3557 72.2265 71.8477C75.7344 68.3398 78.5171 64.1752 80.4156 59.5918C82.3141 55.0084 83.2912 50.096 83.2912 45.135Z" fill="#A0826F"/>
<path d="M43.6901 73.3943C60.1826 73.3456 73.3189 60.1231 73.3976 43.6643C73.4089 40.9568 77.0464 40.0231 78.4001 42.2318C78.7401 42.7868 78.8901 43.5356 78.8501 44.4781C78.5351 51.7881 76.4776 58.1593 72.6776 63.5918C66.0589 73.0531 56.0501 78.3856 44.5264 78.8618C43.4489 78.9043 42.6314 78.7156 42.0739 78.2956C40.0826 76.7881 40.9976 73.4018 43.6901 73.3943Z" fill="#A0826F"/>
<path d="M45.7765 66.3865C56.668 66.3543 65.343 57.6249 65.3951 46.759C65.4025 44.9715 67.8046 44.3551 68.6987 45.8133C68.9232 46.1797 69.0222 46.674 68.9958 47.2962C68.7878 52.1222 67.4291 56.3285 64.9196 59.915C60.5486 66.1612 53.9389 69.6817 46.3288 69.9961C45.6172 70.0242 45.0773 69.8996 44.7092 69.6223C43.3942 68.6271 43.9984 66.3915 45.7765 66.3865Z" fill="#A0826F"/>
</svg>
