<svg width="70" height="70" viewBox="0 0 70 70" fill="none" xmlns="http://www.w3.org/2000/svg">
<path d="M15.6427 22.355L12.6482 22.353C12.5697 22.353 12.5311 22.3144 12.5324 22.2372C12.5453 20.7978 12.5421 19.2721 12.5227 17.6602C12.5112 16.7152 12.6199 15.9086 12.849 15.2404C13.8279 12.3764 16.3494 10.7039 19.3902 10.702C21.4805 10.702 23.5077 10.7046 25.4719 10.7097C25.5607 10.7097 25.6083 10.6653 25.6148 10.5765C25.6367 10.3087 25.6585 10.0332 25.6804 9.74991C25.8021 8.17018 26.7404 6.57499 27.8814 5.58428C29.1924 4.44872 30.6848 3.96785 32.4224 3.98137C34.1484 3.99425 36.0939 3.99167 38.2589 3.97365C39.2912 3.96463 40.1535 4.07729 40.846 4.31161C43.5528 5.22894 45.3175 7.75111 45.3021 10.5823C45.3021 10.6166 45.3155 10.6495 45.3394 10.6738C45.3633 10.698 45.3957 10.7117 45.4295 10.7117C48.9614 10.7142 50.811 10.7123 50.9783 10.7059C51.8986 10.666 52.6927 10.731 53.3608 10.9009C55.7568 11.5073 57.5214 13.201 58.1991 15.5918C58.3909 16.2678 58.4732 17.3171 58.4462 18.7397C58.4218 20.0092 58.4211 21.193 58.4443 22.2912C58.4445 22.3005 58.4429 22.3098 58.4396 22.3184C58.4362 22.3271 58.4311 22.335 58.4246 22.3417C58.4181 22.3483 58.4104 22.3536 58.4018 22.3572C58.3933 22.3608 58.3841 22.3627 58.3748 22.3627L55.3301 22.3646C55.222 22.3659 55.1634 22.42 55.1544 22.5268C54.1594 34.7115 53.1831 46.8692 52.2255 58.9998C52.1148 60.3967 51.9288 61.4331 51.6675 62.1091C50.8991 64.0963 49.0727 65.7224 46.947 66.1839C46.4618 66.2882 45.8536 66.3397 45.1225 66.3384C38.5131 66.3204 32.0022 66.3185 25.5897 66.3326C21.8808 66.3423 19.0987 63.654 18.8052 59.95C17.9428 49.1274 16.9363 36.6395 15.7856 22.4863C15.7779 22.3987 15.7303 22.355 15.6427 22.355ZM28.9607 10.6074L42.0006 10.6306C42.0077 10.6306 42.0146 10.6277 42.0197 10.6226C42.0248 10.6176 42.0276 10.6107 42.0276 10.6035L42.0295 10.5803C42.031 9.6912 41.6708 8.83787 41.0281 8.20805C40.3855 7.57823 39.513 7.22352 38.6025 7.22195L32.3741 7.21036C31.9233 7.20958 31.4768 7.29553 31.06 7.46331C30.6432 7.63108 30.2644 7.87739 29.945 8.18817C29.6257 8.49895 29.3723 8.86812 29.199 9.27459C29.0258 9.68106 28.9363 10.1169 28.9356 10.5572L28.9336 10.5803C28.9336 10.5875 28.9365 10.5944 28.9416 10.5995C28.9466 10.6045 28.9535 10.6074 28.9607 10.6074ZM16.0212 19.1067H54.9362C54.9977 19.1067 55.0566 19.0822 55.1 19.0388C55.1435 18.9953 55.1679 18.9364 55.1679 18.8749V17.4381C55.1679 16.9856 55.077 16.5376 54.9004 16.1196C54.7238 15.7016 54.465 15.3218 54.1387 15.0019C53.8124 14.682 53.4251 14.4282 52.9987 14.2551C52.5724 14.0819 52.1155 13.9928 51.654 13.9928H19.3033C18.8419 13.9928 18.385 14.0819 17.9586 14.2551C17.5323 14.4282 17.145 14.682 16.8187 15.0019C16.4924 15.3218 16.2335 15.7016 16.057 16.1196C15.8804 16.5376 15.7895 16.9856 15.7895 17.4381V18.8749C15.7895 18.9364 15.8139 18.9953 15.8573 19.0388C15.9008 19.0822 15.9597 19.1067 16.0212 19.1067ZM22.1241 60.0311C22.2226 61.2632 23.0933 62.3369 24.2092 62.8217C24.5568 62.9723 25.2814 63.0483 26.3832 63.0496C32.5614 63.0521 38.5401 63.0528 44.3193 63.0515C45.4121 63.0515 46.1638 62.9891 46.5744 62.8642C47.393 62.6157 48.025 62.0711 48.4703 61.2304C48.6775 60.8403 48.823 60.107 48.9067 59.0307C49.5219 51.1758 50.1481 43.4065 50.7852 35.7228C51.1804 30.9656 51.5305 26.5779 51.8355 22.5597C51.8366 22.5453 51.8347 22.5309 51.8299 22.5174C51.8252 22.5038 51.8176 22.4914 51.8079 22.4809C51.7981 22.4704 51.7862 22.462 51.773 22.4563C51.7598 22.4506 51.7456 22.4476 51.7313 22.4477H19.1585C19.1519 22.4476 19.1453 22.449 19.1391 22.4518C19.133 22.4545 19.1275 22.4586 19.123 22.4637C19.1184 22.4687 19.115 22.4747 19.1128 22.4813C19.1106 22.4879 19.1097 22.4948 19.1103 22.5017C19.2879 24.9518 19.4752 27.38 19.6721 29.7863C20.4984 39.8788 21.3158 49.9604 22.1241 60.0311Z" fill="#A0826F"/>
<path d="M26.271 28.0265L26.2248 28.0297C25.3302 28.0923 24.6558 28.8684 24.7183 29.7632L26.5502 55.9676C26.6128 56.8624 27.3887 57.5371 28.2832 57.4745L28.3294 57.4713C29.224 57.4087 29.8985 56.6326 29.8359 55.7378L28.004 29.5334C27.9415 28.6386 27.1656 27.9639 26.271 28.0265Z" fill="#A0826F"/>
<path d="M35.498 28.0038H35.4555C34.5524 28.0038 33.8203 28.7361 33.8203 29.6395V55.8925C33.8203 56.7959 34.5524 57.5282 35.4555 57.5282H35.498C36.4012 57.5282 37.1333 56.7959 37.1333 55.8925V29.6395C37.1333 28.7361 36.4012 28.0038 35.498 28.0038Z" fill="#A0826F"/>
<path d="M44.7195 28.0238L44.6772 28.0208C43.7815 27.9582 43.0047 28.6337 42.9421 29.5295L41.1096 55.7417C41.047 56.6375 41.7223 57.4146 42.6179 57.4772L42.6603 57.4802C43.5559 57.5428 44.3328 56.8674 44.3954 55.9715L46.2278 29.7594C46.2904 28.8635 45.6152 28.0864 44.7195 28.0238Z" fill="#A0826F"/>
</svg>
