<?xml version="1.0" encoding="UTF-8" standalone="no"?>
<!DOCTYPE svg PUBLIC "-//W3C//DTD SVG 1.1//EN" "http://www.w3.org/Graphics/SVG/1.1/DTD/svg11.dtd">
<svg xmlns="http://www.w3.org/2000/svg" version="1.1" viewBox="0.00 0.00 70.00 70.00">
<path fill="#a0826f" d="
  M 48.98 40.76
  Q 54.62 35.44 54.10 29.31
  Q 53.76 25.23 56.81 27.96
  Q 57.79 28.85 58.16 29.18
  Q 61.26 31.95 61.83 36.07
  Q 62.83 43.17 58.72 47.62
  Q 54.63 52.05 48.87 52.00
  Q 35.22 51.88 21.71 52.03
  C 17.13 52.08 13.51 50.36 10.68 46.74
  C 7.09 42.15 7.09 35.42 10.71 30.86
  C 17.79 21.95 31.52 24.65 34.77 35.73
  Q 35.02 36.57 35.07 35.70
  C 35.42 30.36 31.42 24.42 26.28 22.79
  Q 25.69 22.60 25.11 22.39
  Q 24.31 22.08 25.00 21.58
  Q 33.04 15.71 41.20 19.31
  Q 49.54 22.99 50.59 32.56
  C 50.89 35.25 49.76 38.05 48.60 40.48
  Q 48.07 41.62 48.98 40.76
  Z
  M 47.52 43.20
  Q 45.52 42.43 45.93 40.69
  Q 46.12 39.87 46.61 39.22
  C 50.36 34.15 48.04 26.85 43.56 23.19
  Q 37.33 18.11 29.16 21.34
  Q 28.52 21.59 29.14 21.90
  Q 36.68 25.60 37.26 35.86
  Q 37.37 37.80 35.44 38.04
  L 35.02 38.09
  Q 33.32 38.30 32.85 36.65
  Q 30.74 29.34 23.77 27.94
  C 14.02 25.98 6.44 36.33 11.92 44.81
  Q 15.22 49.92 21.76 49.92
  Q 34.00 49.93 47.97 49.94
  Q 54.35 49.95 57.53 45.67
  Q 62.85 38.53 56.82 30.35
  Q 56.34 29.70 56.28 30.50
  Q 55.69 38.64 49.28 42.99
  A 1.94 1.92 -51.5 0 1 47.52 43.20
  Z"
/>
<path fill="#a0826f" d="
  M 29.29 43.96
  C 22.96 43.82 17.88 39.87 16.42 33.68
  A 0.30 0.30 0.0 0 1 16.67 33.31
  L 16.96 33.28
  Q 17.09 33.27 17.14 33.40
  C 18.98 38.95 22.69 42.77 28.74 42.92
  Q 33.97 43.06 39.35 42.94
  Q 39.66 42.93 39.67 43.24
  L 39.67 43.65
  Q 39.67 43.71 39.61 43.72
  Q 36.58 44.11 29.29 43.96
  Z"
/>
<path fill="#a0826f" d="
  M 26.74 45.93
  C 20.78 45.70 15.94 41.65 14.47 35.95
  Q 14.41 35.70 14.55 35.48
  Q 14.68 35.28 14.83 35.30
  Q 15.15 35.33 15.25 35.64
  C 17.43 42.26 22.01 45.27 29.02 45.03
  Q 33.05 44.89 36.64 45.07
  Q 36.95 45.08 36.96 45.39
  L 36.96 45.65
  Q 36.97 45.82 36.80 45.83
  Q 32.18 46.13 26.74 45.93
  Z"
/>
<path fill="#a0826f" d="
  M 23.39 47.78
  C 18.79 47.43 12.85 42.67 12.56 37.77
  Q 12.49 36.51 13.08 37.63
  C 14.12 39.59 14.85 41.84 16.47 43.40
  Q 20.11 46.93 25.37 46.98
  Q 29.81 47.02 34.14 47.01
  Q 34.49 47.00 34.44 47.35
  L 34.39 47.64
  Q 34.36 47.80 34.20 47.81
  Q 28.73 48.19 23.39 47.78
  Z"
/>
</svg>
