<svg width="70" height="70" viewBox="0 0 70 70" fill="none" xmlns="http://www.w3.org/2000/svg">
<path d="M19.32 20.08C19.04 15.36 19.48 11.62 22.26 7.64C27.2 0.549999 37.91 -0.979999 44.73 4.28C49.5433 7.99333 51.6667 13.2633 51.1 20.09C51.0667 20.51 51.26 20.7167 51.68 20.71C55.7133 20.65 59.7767 20.65 63.87 20.71C67.06 20.76 68.26 23.5 67.6 26.23C64.86 37.49 62.0633 48.8767 59.21 60.39C58.13 64.7433 55.33 66.92 50.81 66.92C39.3033 66.94 28.5567 66.93 18.57 66.89C14.39 66.87 11.86 64.22 10.89 60.27C7.78333 47.5633 4.94666 36.01 2.37999 25.61C2.23435 25.0239 2.22434 24.4123 2.35073 23.8216C2.47713 23.2309 2.7366 22.6765 3.10951 22.2005C3.48242 21.7245 3.95897 21.3393 4.50308 21.0741C5.04718 20.809 5.64457 20.6708 6.24999 20.67H18.77C19.1567 20.67 19.34 20.4733 19.32 20.08ZM20.64 22.94C19.7667 23.3533 18.87 23.5667 17.95 23.58C14.2233 23.64 10.3367 23.6433 6.28999 23.59C5.32999 23.5767 4.96333 24.0367 5.18999 24.97L13.88 60.13C14.1511 61.2311 14.7835 62.2092 15.6757 62.9073C16.5679 63.6055 17.6682 63.9833 18.8 63.98C28.1333 63.96 38.8933 63.9667 51.08 64C53.46 64.01 55.65 62.66 56.25 60.25C59.2367 48.2633 62.1 36.5967 64.84 25.25C65.1133 24.11 64.6633 23.55 63.49 23.57C59.7833 23.63 55.9233 23.6467 51.91 23.62C49.35 23.6 48.09 21.51 48.24 19.06C48.5267 14.4 47.1767 10.62 44.19 7.72C38.16 1.85 28.54 3.17 24.01 10.29C21.99 13.46 22.15 16.8 22.24 20.37C22.2515 20.9085 22.1063 21.4384 21.8221 21.8948C21.5379 22.3513 21.1271 22.7145 20.64 22.94Z" fill="#A0826F"/>
<path d="M30.75 23.59C30.2943 23.59 29.8431 23.5002 29.4221 23.3258C29.0011 23.1515 28.6186 22.8959 28.2963 22.5736C27.9741 22.2514 27.7185 21.8689 27.5441 21.4479C27.3698 21.0269 27.28 20.5757 27.28 20.12L27.27 17.07C27.2686 16.0246 27.4683 14.9892 27.8575 14.023C28.2467 13.0567 28.818 12.1784 29.5386 11.4383C30.2591 10.6982 31.115 10.1108 32.0572 9.7096C32.9994 9.30839 34.0096 9.10124 35.03 9.09998H35.17C37.2307 9.09744 39.208 9.93359 40.667 11.4245C42.126 12.9154 42.9472 14.9389 42.95 17.05L42.96 20.1C42.96 21.0203 42.5944 21.9029 41.9437 22.5536C41.2929 23.2044 40.4103 23.57 39.49 23.57L30.75 23.59ZM30.53 20.69L39.73 20.67C39.8096 20.67 39.8859 20.6384 39.9421 20.5821C39.9984 20.5259 40.03 20.4495 40.03 20.37L40.02 16.71C40.0187 16.0954 39.8933 15.4871 39.6508 14.9197C39.4084 14.3524 39.0538 13.8372 38.6071 13.4036C38.1604 12.9699 37.6306 12.6263 37.0477 12.3924C36.4648 12.1584 35.8404 12.0386 35.21 12.04H35.01C33.737 12.0427 32.5172 12.5383 31.6189 13.4178C30.7206 14.2974 30.2174 15.4888 30.22 16.73L30.23 20.39C30.23 20.4695 30.2616 20.5459 30.3179 20.6021C30.3741 20.6584 30.4504 20.69 30.53 20.69Z" fill="#A0826F"/>
<path d="M18.73 42.35C16.1833 38.3433 14.78 33.9533 14.52 29.18C14.5133 29.0267 14.5833 28.9433 14.73 28.93L15 28.9C15.16 28.88 15.2533 28.9467 15.28 29.1C16.0933 33.5467 17.4367 37.9 19.31 42.16C19.3367 42.22 19.32 42.2633 19.26 42.29L19.02 42.42C18.9 42.4867 18.8033 42.4633 18.73 42.35Z" fill="#A0826F"/>
<path d="M23.4532 46.7964C20.193 41.1999 18.0568 34.9156 17.0446 27.9434C17.0138 27.7193 17.0733 27.5894 17.2231 27.5537L17.4979 27.48C17.6604 27.4331 17.7674 27.5206 17.8189 27.7426C19.3531 34.1748 21.4215 40.412 24.0241 46.454C24.061 46.5391 24.0505 46.6044 23.9926 46.6501L23.7643 46.8672C23.6505 46.9781 23.5468 46.9545 23.4532 46.7964Z" fill="#A0826F"/>
<path d="M13.6408 36.9379C14.0896 38.613 14.7173 39.9002 15.0427 39.813C15.3681 39.7258 15.2681 38.2972 14.8192 36.6221C14.3704 34.947 13.7427 33.6598 13.4173 33.747C13.0919 33.8342 13.192 35.2628 13.6408 36.9379Z" fill="#A0826F"/>
</svg>
