<svg width="70" height="70" viewBox="0 0 70 70" fill="none" xmlns="http://www.w3.org/2000/svg">
<g clip-path="url(#clip0_7_102)">
<path d="M20.31 41.87C22.0994 41.87 23.55 40.4194 23.55 38.63C23.55 36.8406 22.0994 35.39 20.31 35.39C18.5206 35.39 17.07 36.8406 17.07 38.63C17.07 40.4194 18.5206 41.87 20.31 41.87Z" fill="#A0826F"/>
<path d="M35.46 45.11C37.0727 45.11 38.38 43.8027 38.38 42.19C38.38 40.5773 37.0727 39.27 35.46 39.27C33.8473 39.27 32.54 40.5773 32.54 42.19C32.54 43.8027 33.8473 45.11 35.46 45.11Z" fill="#A0826F"/>
<path d="M49.18 48.95C50.1078 48.95 50.86 48.1978 50.86 47.27C50.86 46.3422 50.1078 45.59 49.18 45.59C48.2522 45.59 47.5 46.3422 47.5 47.27C47.5 48.1978 48.2522 48.95 49.18 48.95Z" fill="#A0826F"/>
<path d="M58.07 32.5498C51.59 26.0198 45.19 19.5898 38.87 13.2498C37.76 12.1398 36.76 11.6098 35.3 12.1198C28.22 14.5798 19.33 19.5998 15.48 26.0398C14.93 26.9698 14.8 28.0698 15.09 29.3298C15.16 29.6198 15.34 29.7898 15.64 29.8398L25.81 31.5598C26.17 31.6198 26.39 31.8298 26.46 32.1898C26.75 33.6498 27.61 34.4698 29.06 34.6498C29.45 34.6998 29.76 34.5698 30 34.2598L30.92 33.0498C31.17 32.7198 31.51 32.5798 31.92 32.6498L37.12 33.5198C37.53 33.5898 37.71 33.8298 37.66 34.2398C36.76 41.5198 47.02 42.3198 46.59 36.0298C46.56 35.5198 46.79 35.3098 47.28 35.3998L55.62 36.8198C56.11 36.9098 56.31 37.1998 56.24 37.6898C56.16 38.2598 56.17 38.8498 56.28 39.4398C56.37 39.9098 56.19 40.0498 55.74 39.8598C54.35 39.2498 53.22 39.5398 52.36 40.7298C50.83 42.8698 53.74 45.8198 55.65 44.5398C56.05 44.2698 56.25 44.3698 56.25 44.8598L56.21 54.1098C56.21 54.5198 56.01 54.6898 55.61 54.6298L47.43 53.3798C47.13 53.3298 36.64 51.7398 28.29 50.4698C28.43 50.2198 28.52 49.9398 28.52 49.6398C28.52 48.7098 27.77 47.9598 26.84 47.9598C25.91 47.9598 25.16 48.7098 25.16 49.6398C25.16 49.7598 25.18 49.8798 25.2 49.9998C22.6 49.6098 20.44 49.2798 19.22 49.0898C19.17 49.0798 19.13 49.0598 19.08 49.0498C16.78 48.6698 12.87 48.8898 12.86 45.6298V27.5798C12.86 25.7298 13.96 24.3098 15.13 22.9598C20.42 16.8998 27.04 12.6098 35.01 10.1098C35.69 9.8998 35.79 9.5198 35.32 8.9898C35.07 8.7198 34.78 8.4898 34.45 8.3198C33.73 7.9598 32.9 7.8998 32.14 8.1598C24.01 10.9498 15.88 16.3598 11.15 23.5698C10.38 24.7498 10 26.0398 10 27.4298C10.01 33.9998 10.03 40.2698 10.05 46.2398C10.05 50.3898 13.27 51.4998 16.66 51.9698C16.66 51.9698 16.72 51.9798 16.75 51.9798H16.86C19.75 52.3898 46.3 56.3298 47.07 56.4498L56.06 57.8998C56.2 57.9198 56.35 57.9298 56.49 57.9298C58.05 57.9298 59.31 56.6698 59.32 55.1198V35.5998C59.32 34.4598 58.87 33.3598 58.07 32.5498ZM56.66 34.4698C53.07 35.0198 17.46 29.6998 16.47 28.3198C15.52 26.9998 22.36 21.1498 27.27 18.1198C28.67 17.2598 30.08 16.4098 31.56 15.6898C32.11 15.4198 35.5 13.3498 36.42 13.3498C37.89 13.3498 52.41 28.3298 55.94 31.7598C57.03 32.8198 57.33 34.3698 56.66 34.4698Z" fill="#A0826F"/>
<path d="M53.4027 32.0501C53.4027 31.7663 52.987 31.5611 52.7997 31.3738C52.5996 31.1737 52.2953 31.0145 52.156 30.7708C52.0878 30.6515 51.8239 30.5386 51.716 30.4367C51.5104 30.2425 51.292 30.0861 51.0926 29.8867C50.4567 29.2508 49.8192 28.6369 49.2063 28.0004C48.7661 27.5432 48.3853 27.0327 47.9393 26.5867C47.6203 26.2677 47.4069 25.7611 47.0592 25.4907C46.2924 24.8943 45.8318 23.9659 45.1525 23.2866C43.9105 22.0446 42.5462 20.9152 41.4817 19.5465C40.8579 18.7444 40.0608 18.0071 39.3224 17.3098C38.8598 16.8729 38.3338 16.4915 37.872 16.0468C37.566 15.7522 37.0113 15.401 36.829 15.0364" stroke="#A0826F" stroke-linecap="round"/>
<path d="M50 32C50 31.7665 49.6489 31.5976 49.4907 31.4435C49.3216 31.2788 49.0645 31.1479 48.9469 30.9473C48.8893 30.8491 48.6664 30.7563 48.5752 30.6724C48.4015 30.5126 48.2171 30.3839 48.0487 30.2198C47.5115 29.6966 46.973 29.1914 46.4553 28.6676C46.0834 28.2914 45.7618 27.8714 45.385 27.5043C45.1155 27.2418 44.9353 26.825 44.6416 26.6025C43.9938 26.1117 43.6047 25.3477 43.031 24.7888C41.9818 23.7668 40.8294 22.8374 39.9302 21.7112C39.4032 21.0512 38.7299 20.4445 38.1062 19.8707C37.7154 19.5112 37.2711 19.1973 36.881 18.8314C36.6225 18.589 36.154 18.3 36 18" stroke="#A0826F" stroke-linecap="round"/>
<path d="M46 31C46 30.8332 45.7492 30.7126 45.6362 30.6025C45.5154 30.4849 45.3318 30.3913 45.2478 30.2481C45.2066 30.1779 45.0474 30.1116 44.9823 30.0517C44.8582 29.9376 44.7265 29.8456 44.6062 29.7284C44.2225 29.3547 43.8378 28.9938 43.468 28.6197C43.2024 28.351 42.9727 28.051 42.7035 27.7888C42.5111 27.6013 42.3823 27.3036 42.1726 27.1446C41.7099 26.7941 41.432 26.2484 41.0221 25.8491C40.2727 25.1191 39.4496 24.4553 38.8073 23.6509C38.4309 23.1794 37.9499 22.7461 37.5044 22.3362C37.2253 22.0794 36.9079 21.8552 36.6293 21.5939C36.4447 21.4207 36.11 21.2143 36 21" stroke="#A0826F" stroke-linecap="round"/>
</g>
<defs>
<clipPath id="clip0_7_102">
<rect width="49.32" height="49.95" fill="white" transform="translate(10 8)"/>
</clipPath>
</defs>
</svg>
