<?xml version="1.0" encoding="UTF-8" standalone="no"?>
<!DOCTYPE svg PUBLIC "-//W3C//DTD SVG 1.1//EN" "http://www.w3.org/Graphics/SVG/1.1/DTD/svg11.dtd">
<svg xmlns="http://www.w3.org/2000/svg" version="1.1" viewBox="0.00 0.00 70.00 70.00">
<path fill="#A0826F" d="
  M 27.33 48.15
  C 23.66 48.71 15.24 48.76 14.21 44.04
  Q 13.77 42.01 13.73 39.86
  A 1.22 1.21 -6.9 0 0 12.24 38.70
  L 10.64 39.08
  A 2.28 2.28 0.0 0 1 7.84 36.74
  Q 8.37 26.94 16.89 22.38
  C 21.00 20.18 24.27 18.38 29.23 18.75
  A 0.98 0.97 -69.8 0 0 30.09 18.35
  C 30.85 17.31 31.39 16.11 32.22 15.13
  Q 38.19 8.08 47.18 9.15
  C 49.02 9.36 50.62 10.37 52.44 10.75
  Q 53.65 11.00 54.59 11.57
  C 64.19 17.31 61.53 27.80 54.57 34.37
  Q 54.16 34.75 54.52 35.17
  C 59.70 41.25 63.72 46.50 61.38 55.23
  Q 60.91 57.01 59.70 58.27
  A 1.80 1.79 -49.7 0 1 57.33 58.47
  L 55.57 57.14
  A 1.05 1.04 36.6 0 0 54.11 57.35
  Q 53.12 58.70 52.31 60.19
  C 51.15 62.30 48.62 63.18 46.41 62.63
  Q 33.47 59.40 28.29 48.66
  Q 28.00 48.05 27.33 48.15
  Z
  M 47.11 13.34
  C 45.86 13.27 44.43 13.07 43.22 13.34
  Q 38.18 14.47 34.19 19.36
  Q 33.92 19.70 34.31 19.89
  Q 40.89 23.21 44.32 30.10
  Q 44.55 30.57 45.04 30.72
  C 49.17 32.00 53.56 25.32 54.39 22.33
  C 56.07 16.28 51.28 11.12 45.36 11.06
  Q 36.64 10.96 32.27 18.92
  Q 32.12 19.20 32.42 19.32
  L 32.68 19.42
  Q 33.05 19.56 33.27 19.23
  Q 38.42 11.46 46.98 12.22
  Q 47.42 12.26 47.59 12.68
  Q 47.86 13.37 47.11 13.34
  Z
  M 52.65 33.28
  C 57.54 28.99 61.64 20.51 56.15 15.20
  Q 55.57 14.64 55.85 15.40
  C 58.22 21.99 55.47 27.90 49.83 31.71
  A 0.24 0.23 42.7 0 0 49.85 32.11
  L 52.10 33.34
  A 0.49 0.48 38.1 0 0 52.65 33.28
  Z
  M 18.04 44.66
  Q 17.68 44.95 17.51 44.52
  Q 15.74 39.80 16.53 35.04
  Q 16.67 34.17 16.12 34.85
  Q 14.77 36.49 15.38 38.26
  C 15.93 39.87 15.76 41.59 16.12 43.25
  Q 16.42 44.63 17.68 45.26
  L 18.69 45.76
  Q 19.99 46.41 19.57 45.02
  Q 18.41 41.12 18.19 37.16
  Q 18.16 36.62 18.70 36.59
  L 18.99 36.57
  Q 19.41 36.54 19.40 36.96
  Q 19.30 40.64 20.46 44.19
  Q 20.63 44.73 20.55 45.29
  L 20.49 45.70
  Q 20.40 46.24 20.95 46.24
  L 27.05 46.23
  Q 27.58 46.23 27.55 45.70
  L 27.41 43.37
  Q 27.38 42.94 26.95 42.94
  Q 24.34 42.91 21.60 41.93
  Q 20.81 41.65 21.00 40.82
  L 21.10 40.41
  Q 21.33 39.44 22.24 39.84
  Q 24.53 40.84 27.08 40.94
  Q 27.62 40.96 27.77 40.45
  C 29.44 34.58 33.90 33.08 39.05 31.33
  Q 40.40 30.88 40.02 29.50
  Q 37.87 21.78 29.55 20.87
  C 23.61 20.22 16.35 23.60 15.68 30.22
  A 0.32 0.32 0.0 0 0 16.12 30.55
  Q 17.24 30.09 18.46 30.25
  Q 19.11 30.33 19.29 30.95
  Q 19.41 31.36 19.35 31.77
  Q 19.25 32.48 18.54 32.60
  L 17.52 32.79
  Q 16.79 32.92 17.15 33.57
  Q 17.27 33.79 17.57 33.81
  A 0.46 0.45 -79.4 0 1 17.97 34.40
  Q 16.56 38.79 18.47 43.73
  A 0.67 0.66 60.2 0 1 18.27 44.48
  L 18.04 44.66
  Z
  M 13.65 30.80
  C 13.47 29.76 13.87 28.54 14.17 27.52
  Q 14.47 26.52 13.76 27.30
  Q 10.29 31.13 9.89 36.36
  A 0.55 0.55 0.0 0 0 10.54 36.95
  L 12.62 36.58
  A 1.03 1.03 0.0 0 0 13.43 35.82
  Q 14.06 33.25 13.65 30.80
  Z
  M 52.20 48.21
  Q 52.10 47.41 52.73 46.95
  C 53.69 46.25 54.99 47.27 55.52 48.05
  Q 56.22 49.07 56.50 47.87
  C 58.51 39.36 51.06 32.87 43.19 32.80
  C 36.07 32.74 31.39 39.00 34.37 45.72
  Q 37.53 52.86 46.35 53.97
  Q 47.07 54.06 47.16 54.78
  Q 47.18 54.96 47.12 55.12
  Q 46.80 56.02 45.86 55.92
  C 36.62 54.94 29.11 46.94 32.13 37.53
  Q 32.45 36.56 31.73 37.29
  C 28.60 40.48 29.03 45.83 31.14 49.60
  C 34.00 54.72 39.31 58.17 45.27 60.27
  Q 46.73 60.78 48.34 60.63
  A 2.73 2.73 0.0 0 0 50.60 59.01
  Q 51.57 56.83 53.19 55.21
  Q 53.61 54.78 53.69 54.18
  Q 53.96 52.03 53.49 49.83
  Q 53.42 49.51 53.18 49.28
  Q 52.96 49.08 52.70 48.94
  Q 52.26 48.70 52.20 48.21
  Z
  M 57.45 50.46
  Q 56.37 51.97 55.80 53.78
  Q 55.60 54.40 56.10 54.82
  L 57.99 56.47
  Q 58.43 56.84 58.65 56.31
  Q 60.77 51.29 59.30 46.19
  Q 59.01 45.20 58.84 46.22
  C 58.59 47.74 58.36 49.19 57.45 50.46
  Z"
/>
<path fill="#A0826F" d="
  M 11.58 35.57
  Q 11.49 35.85 11.20 35.80
  L 10.93 35.75
  Q 10.48 35.67 10.62 35.23
  L 11.81 31.59
  A 0.35 0.35 0.0 0 1 12.25 31.37
  L 12.70 31.51
  Q 12.91 31.58 12.84 31.80
  L 11.58 35.57
  Z"
/>
<path fill="#A0826F" d="
  M 38.55 36.23
  C 37.46 42.78 39.52 46.39 45.11 49.45
  A 0.26 0.25 27.6 0 1 45.22 49.79
  L 45.10 50.03
  Q 44.91 50.41 44.53 50.23
  Q 35.38 46.04 37.55 35.86
  A 0.33 0.32 -77.0 0 1 37.94 35.61
  L 38.20 35.68
  A 0.49 0.48 -78.2 0 1 38.55 36.23
  Z"
/>
<path fill="#A0826F" d="
  M 45.69 52.49
  C 38.42 52.05 33.87 45.89 35.08 38.82
  Q 35.13 38.47 35.48 38.55
  L 35.77 38.62
  A 0.44 0.44 0.0 0 1 36.10 39.15
  C 34.66 45.58 39.46 50.62 45.55 51.49
  Q 45.99 51.55 45.96 52.00
  L 45.94 52.27
  Q 45.92 52.50 45.69 52.49
  Z"
/>
</svg>
