<?xml version="1.0" encoding="UTF-8" standalone="no"?>
<!DOCTYPE svg PUBLIC "-//W3C//DTD SVG 1.1//EN" "http://www.w3.org/Graphics/SVG/1.1/DTD/svg11.dtd">
<svg xmlns="http://www.w3.org/2000/svg" version="1.1" viewBox="0.00 0.00 70.00 70.00">
<path fill="#A0826F" d="
  M 9.87 25.97
  C 12.95 19.81 21.18 16.31 27.81 15.43
  C 39.26 13.90 50.80 15.13 58.22 24.85
  C 59.82 26.95 60.95 29.68 61.00 32.30
  Q 61.10 37.51 60.91 41.76
  Q 60.77 44.83 58.65 47.50
  Q 51.07 57.05 39.48 54.60
  C 34.02 53.45 29.92 49.20 25.87 45.50
  Q 22.54 42.46 18.09 42.32
  C 14.62 42.21 11.20 42.04 9.55 38.38
  C 8.42 35.86 9.08 31.30 9.02 28.46
  C 9.00 27.52 9.46 26.78 9.87 25.97
  Z
  M 39.67 17.04
  C 30.43 16.21 18.43 17.56 12.40 25.50
  C 8.98 30.00 11.47 34.85 17.01 34.78
  C 23.47 34.71 26.82 37.86 30.97 41.88
  Q 37.77 48.45 46.39 47.04
  C 55.87 45.50 63.42 35.11 56.68 26.11
  Q 50.61 18.01 39.67 17.04
  Z
  M 16.66 39.95
  C 20.11 39.80 24.37 40.96 26.81 43.32
  Q 30.21 46.60 33.80 49.35
  C 42.48 56.01 54.59 52.80 58.61 42.65
  Q 59.11 41.40 58.25 42.44
  C 50.24 52.24 37.38 51.66 28.79 43.01
  C 25.75 39.95 22.43 37.00 18.17 37.11
  Q 16.20 37.15 14.11 36.71
  Q 13.62 36.60 13.18 36.37
  L 11.67 35.57
  Q 11.02 35.22 11.15 35.94
  C 11.66 38.94 13.91 40.07 16.66 39.95
  Z"
/>
<path fill="#A0826F" d="
  M 56.32 28.67
  C 59.41 34.23 56.34 39.94 51.28 43.03
  C 45.37 46.64 38.28 45.55 33.13 40.92
  Q 30.22 38.31 27.28 35.77
  C 23.84 32.81 19.59 32.56 15.26 32.23
  C 12.01 31.98 12.09 28.32 13.71 26.36
  Q 18.25 20.88 26.25 19.29
  C 37.23 17.11 50.44 18.10 56.32 28.67
  Z
  M 15.77 30.06
  C 22.88 29.84 27.84 32.50 32.64 37.46
  C 38.21 43.20 45.65 45.20 52.26 39.45
  C 54.88 37.18 56.10 33.37 54.53 30.21
  C 49.25 19.61 34.87 19.48 24.67 22.10
  Q 18.68 23.63 14.96 28.48
  A 0.98 0.98 0.0 0 0 15.77 30.06
  Z"
/>
<path fill="#A0826F" d="
  M 40.84 23.55
  Q 40.76 23.43 40.73 23.28
  Q 40.71 23.18 40.80 23.22
  L 46.42 25.38
  A 0.26 0.26 0.0 0 1 46.59 25.66
  L 46.50 26.22
  Q 46.46 26.50 46.20 26.40
  L 42.26 24.97
  Q 41.75 24.79 41.21 24.85
  Q 39.68 25.01 38.25 24.58
  Q 37.75 24.43 37.25 24.62
  Q 36.48 24.90 35.74 24.49
  Q 35.27 24.23 34.79 24.49
  Q 34.21 24.80 33.57 24.68
  Q 32.95 24.57 32.33 24.65
  Q 29.51 25.00 26.63 25.72
  Q 25.28 26.06 24.00 26.76
  Q 22.83 27.41 21.26 27.23
  Q 20.54 27.15 21.19 26.83
  Q 25.75 24.61 30.72 23.62
  Q 30.93 23.58 31.10 23.72
  Q 31.21 23.80 31.33 23.83
  Q 31.51 23.87 31.67 23.78
  Q 32.72 23.18 33.89 23.66
  Q 34.22 23.80 34.50 23.58
  Q 35.40 22.89 36.36 23.61
  Q 36.67 23.85 37.02 23.66
  Q 38.32 22.95 39.75 23.95
  Q 40.17 24.24 40.65 24.08
  Q 41.10 23.94 40.84 23.55
  Z"
/>
<path fill="#A0826F" d="
  M 30.28 26.65
  Q 30.57 26.62 30.81 26.45
  Q 31.22 26.15 31.72 26.14
  Q 36.29 26.06 40.44 26.35
  Q 41.20 26.41 41.41 27.05
  Q 41.62 27.70 40.94 27.61
  Q 38.52 27.26 35.84 27.13
  Q 32.66 26.99 28.61 27.85
  Q 28.00 27.98 27.65 27.38
  Q 27.37 26.88 27.94 26.84
  Q 28.77 26.77 29.43 26.30
  Q 29.65 26.15 29.87 26.29
  Q 30.00 26.39 30.06 26.52
  Q 30.12 26.67 30.28 26.65
  Z"
/>
<path fill="#A0826F" d="
  M 35.11 28.62
  A 0.45 0.44 -29.3 0 1 35.51 28.73
  L 36.12 29.31
  Q 36.58 29.75 35.95 29.86
  Q 33.52 30.28 31.08 30.17
  Q 30.51 30.14 30.14 29.69
  Q 29.74 29.20 30.38 29.19
  Q 32.60 29.17 35.11 28.62
  Z"
/>
<path fill="#A0826F" d="
  M 51.24 34.76
  A 6.62 5.35 0.0 0 1 44.62 40.11
  A 6.62 5.35 0.0 0 1 38.00 34.76
  A 6.62 5.35 0.0 0 1 44.62 29.41
  A 6.62 5.35 0.0 0 1 51.24 34.76
  Z
  M 48.9699 34.8227
  A 4.33 3.05 0.3 0 0 44.6560 31.7500
  A 4.33 3.05 0.3 0 0 40.3101 34.7773
  A 4.33 3.05 0.3 0 0 44.6240 37.8500
  A 4.33 3.05 0.3 0 0 48.9699 34.8227
  Z"
/>
</svg>
