<?xml version="1.0" encoding="UTF-8" standalone="no"?>
<!DOCTYPE svg PUBLIC "-//W3C//DTD SVG 1.1//EN" "http://www.w3.org/Graphics/SVG/1.1/DTD/svg11.dtd">
<svg xmlns="http://www.w3.org/2000/svg" version="1.1" viewBox="0.00 0.00 70.00 70.00">
<path fill="#a0826f" d="
  M 24.88 19.99
  Q 24.19 16.14 22.60 12.40
  A 1.07 1.07 0.0 0 1 23.56 10.91
  Q 35.05 10.67 48.40 8.90
  Q 52.11 8.41 49.81 11.36
  Q 46.86 15.13 45.08 18.91
  A 2.19 2.13 -37.3 0 0 44.89 20.20
  Q 45.47 24.02 47.38 27.55
  Q 47.64 28.02 48.18 28.01
  L 55.81 27.98
  A 1.03 1.03 0.0 0 1 56.85 29.07
  L 55.01 61.75
  A 1.01 1.01 0.0 0 1 54.00 62.71
  L 40.29 62.71
  Q 39.36 62.71 39.28 61.78
  L 39.03 58.75
  Q 38.98 58.08 38.31 58.09
  Q 34.19 58.15 30.20 58.15
  Q 25.79 58.15 24.91 55.27
  Q 24.76 54.78 24.35 54.46
  Q 18.55 49.98 17.79 42.51
  Q 17.72 41.88 17.32 41.40
  C 10.74 33.46 14.40 22.93 24.38 20.75
  Q 25.00 20.62 24.88 19.99
  Z
  M 38.48 27.98
  L 44.50 28.02
  Q 45.25 28.02 44.93 27.35
  C 43.39 24.13 41.84 20.32 43.64 16.85
  Q 45.02 14.19 46.84 11.93
  Q 47.53 11.09 46.45 11.23
  Q 36.35 12.55 25.78 12.97
  Q 25.09 12.99 25.35 13.63
  C 27.95 20.11 27.04 26.00 23.10 31.38
  Q 21.05 34.20 20.24 37.24
  C 19.00 41.96 20.29 48.15 24.30 51.64
  Q 25.24 52.46 26.15 53.24
  A 2.55 2.55 0.0 0 1 26.84 54.25
  Q 27.16 55.09 27.82 55.70
  Q 28.23 56.07 28.78 56.07
  L 38.20 56.01
  Q 38.90 56.00 38.86 55.30
  L 37.26 29.28
  A 1.23 1.21 88.5 0 1 38.48 27.98
  Z
  M 18.08 37.85
  C 18.33 34.68 20.41 31.59 22.14 28.93
  Q 23.82 26.35 24.54 23.36
  Q 24.70 22.72 24.07 22.92
  C 17.47 24.98 13.86 31.72 17.50 37.98
  Q 18.00 38.83 18.08 37.85
  Z
  M 39.78 30.13
  A 0.31 0.31 0.0 0 0 39.47 30.46
  L 39.77 34.65
  A 0.31 0.31 0.0 0 0 40.08 34.94
  L 54.11 34.94
  A 0.31 0.31 0.0 0 0 54.42 34.65
  L 54.74 30.46
  A 0.31 0.31 0.0 0 0 54.44 30.13
  L 39.78 30.13
  Z
  M 54.29 37.49
  A 0.42 0.42 0.0 0 0 53.87 37.05
  L 40.29 37.01
  A 0.42 0.42 0.0 0 0 39.87 37.45
  L 41.16 60.27
  A 0.42 0.42 0.0 0 0 41.58 60.67
  L 52.61 60.60
  A 0.42 0.42 0.0 0 0 53.02 60.21
  L 54.29 37.49
  Z"
/>
<path fill="#a0826f" d="
  M 24.93 33.07
  C 20.56 40.49 22.54 45.92 28.08 51.73
  C 28.88 52.58 29.14 53.90 28.88 55.00
  Q 28.65 55.96 28.27 55.05
  C 27.86 54.07 27.90 52.94 27.11 52.17
  C 22.64 47.75 19.96 42.58 22.31 36.20
  C 23.85 31.99 27.29 28.23 28.19 23.98
  Q 29.14 19.52 27.31 14.58
  Q 27.15 14.17 27.59 14.12
  L 27.95 14.08
  A 0.30 0.29 74.3 0 1 28.26 14.26
  C 30.26 19.09 30.08 24.14 27.52 28.62
  Q 26.28 30.79 24.93 33.07
  Z"
/>
<path fill="#a0826f" d="
  M 29.14 51.83
  Q 24.00 46.66 23.89 41.24
  C 23.69 32.00 32.69 27.52 30.57 17.67
  A 0.52 0.52 0.0 0 1 30.97 17.05
  L 31.23 16.99
  A 0.31 0.31 0.0 0 1 31.59 17.23
  C 32.95 23.65 30.56 27.62 27.46 32.68
  C 22.96 40.03 24.68 45.79 30.48 51.72
  C 31.31 52.57 31.36 53.66 31.28 54.78
  Q 31.27 55.05 31.12 55.28
  Q 30.89 55.61 30.70 55.53
  Q 30.25 55.34 30.27 54.86
  Q 30.36 53.06 29.14 51.83
  Z"
/>
<path fill="#a0826f" d="
  M 28.85 48.42
  C 23.55 40.52 27.98 33.97 32.06 27.07
  Q 33.60 24.47 33.47 20.31
  Q 33.45 19.81 33.95 19.80
  L 34.21 19.79
  Q 34.59 19.77 34.60 20.15
  Q 34.75 24.22 33.33 26.89
  C 29.90 33.35 24.88 39.23 29.18 46.79
  C 30.23 48.63 31.82 50.24 33.21 51.90
  C 33.79 52.60 34.20 53.89 33.94 54.74
  Q 33.38 56.57 33.05 54.69
  C 32.57 51.89 30.01 50.16 28.85 48.42
  Z"
/>
<rect fill="#a0826f" x="-0.56" y="-10.20" transform="translate(44.71,49.03) rotate(-2.6)" width="1.12" height="20.40" rx="0.54"/>
<rect fill="#a0826f" x="-0.53" y="-10.04" transform="translate(42.27,49.02) rotate(-2.5)" width="1.06" height="20.08" rx="0.40"/>
</svg>
